<svg width="215" height="57" viewBox="0 0 215 57" fill="none" xmlns="http://www.w3.org/2000/svg">
<g filter="url(#filter0_d_33_75)">
<path d="M31.3333 35C31.3333 42.3638 25.3638 48.3333 18 48.3333C10.6362 48.3333 4.66667 42.3638 4.66667 35C4.66667 27.6362 10.6362 21.6667 18 21.6667C25.3638 21.6667 31.3333 27.6362 31.3333 35ZM160.838 35L162.222 37.0823L161.593 37.5H160.838V35ZM159.455 32.9177L207.616 0.917727L210.384 5.08227L162.222 37.0823L159.455 32.9177ZM18 32.5H89.4192V37.5H18V32.5ZM89.4192 32.5H160.838V37.5H89.4192V32.5Z" fill="black"/>
</g>
<defs>
<filter id="filter0_d_33_75" x="0.666992" y="0.917725" width="213.717" height="55.4156" filterUnits="userSpaceOnUse" color-interpolation-filters="sRGB">
<feFlood flood-opacity="0" result="BackgroundImageFix"/>
<feColorMatrix in="SourceAlpha" type="matrix" values="0 0 0 0 0 0 0 0 0 0 0 0 0 0 0 0 0 0 127 0" result="hardAlpha"/>
<feOffset dy="4"/>
<feGaussianBlur stdDeviation="2"/>
<feComposite in2="hardAlpha" operator="out"/>
<feColorMatrix type="matrix" values="0 0 0 0 0 0 0 0 0 0 0 0 0 0 0 0 0 0 0.25 0"/>
<feBlend mode="normal" in2="BackgroundImageFix" result="effect1_dropShadow_33_75"/>
<feBlend mode="normal" in="SourceGraphic" in2="effect1_dropShadow_33_75" result="shape"/>
</filter>
</defs>
</svg>
